<?xml version="1.0" standalone="no"?><!DOCTYPE svg PUBLIC "-//W3C//DTD SVG 1.1//EN" "http://www.w3.org/Graphics/SVG/1.1/DTD/svg11.dtd"><svg t="1665709944947" class="icon" viewBox="0 0 1024 1024" version="1.1" xmlns="http://www.w3.org/2000/svg" p-id="5634" xmlns:xlink="http://www.w3.org/1999/xlink" width="200" height="200"><path d="M896 303.136l-384 207.104L128 303.136l384-208z" fill="#E3FFFA" p-id="5635"></path><path d="M512 960a31.904 31.904 0 0 1-15.264-3.872l-384-208.064A32 32 0 0 1 96 719.936V304a32 32 0 0 1 64 0v396.864l352 190.72 352-190.72V304a32 32 0 1 1 64 0v415.936a32 32 0 0 1-16.736 28.128l-384 208.064A31.904 31.904 0 0 1 512 960z" fill="#1DDDCB" p-id="5636"></path><path d="M895.968 336a32 32 0 0 1-15.232-3.872L512 132.384 143.232 332.128a32 32 0 0 1-30.464-56.256l384-208a31.968 31.968 0 0 1 30.464 0l384 208a31.968 31.968 0 0 1-15.264 60.128zM512 800a32 32 0 0 1-32-32v-256a32 32 0 0 1 64 0v256a32 32 0 0 1-32 32z" fill="#1DDDCB" p-id="5637"></path><path d="M512.032 542.24a32 32 0 0 1-15.2-60.192l227.072-122.464a32.032 32.032 0 0 1 30.368 56.352l-227.072 122.464c-4.832 2.592-10.048 3.84-15.168 3.84z" fill="#1DDDCB" p-id="5638"></path><path d="M511.968 542.24c-5.12 0-10.336-1.248-15.168-3.84L269.76 415.968a32.032 32.032 0 0 1 30.368-56.352l227.04 122.464a32 32 0 0 1-15.2 60.16z" fill="#1DDDCB" p-id="5639"></path></svg>